<svg width="33" height="32" viewBox="0 0 33 32" fill="none" xmlns="http://www.w3.org/2000/svg">
<path d="M30.1753 0H3.46842C2.00971 0 0.734375 1.05027 0.734375 2.49231V29.2576C0.734375 30.708 2.00971 32 3.46842 32H30.167C31.634 32 32.7343 30.6996 32.7343 29.2576V2.49231C32.7427 1.05027 31.634 0 30.1753 0ZM10.6536 26.6736H6.06909V12.4199H10.6536V26.6736ZM8.51972 10.2527H8.48638C7.01934 10.2527 6.06909 9.16071 6.06909 7.79368C6.06909 6.40166 7.04434 5.33471 8.54473 5.33471C10.0451 5.33471 10.962 6.39332 10.9954 7.79368C10.9954 9.16071 10.0451 10.2527 8.51972 10.2527ZM27.4079 26.6736H22.8234V18.8799C22.8234 17.0127 22.1566 15.7374 20.4978 15.7374C19.2308 15.7374 18.4806 16.596 18.1472 17.4295C18.0222 17.7296 17.9888 18.138 17.9888 18.5548V26.6736H13.4043V12.4199H17.9888V14.4037C18.6557 13.4535 19.6976 12.0865 22.1232 12.0865C25.1324 12.0865 27.4079 14.0703 27.4079 18.3464V26.6736Z" fill="white"/>
</svg>
